<svg xmlns="http://www.w3.org/2000/svg" width="180" height="44" viewBox="0 0 180 44" role="img" aria-label="Dentist Radar">
  <defs><linearGradient id="g" x1="0" x2="1"><stop offset="0" stop-color="#0AA77F"/><stop offset="1" stop-color="#23C8A0"/></linearGradient></defs>
  <g transform="translate(4,4)"><circle cx="18" cy="18" r="18" fill="url(#g)"/>
    <path d="M18 10c4 0 7 3 7 7 0 3-2 6-5 6-1 0-2-1-3-1-1 0-2 1-3 1-3 0-5-3-5-6 0-4 3-7 7-7z" fill="#fff"/>
    <circle cx="18" cy="18" r="10" fill="none" stroke="#fff" stroke-width="2" opacity="0.7"/>
    <circle cx="18" cy="18" r="6" fill="none" stroke="#fff" stroke-width="2" opacity="0.5"/>
    <circle cx="18" cy="18" r="2" fill="#fff"/></g>
  <g transform="translate(48,9)" fill="#0F172A">
    <text x="0" y="16" font-family="Segoe UI,Roboto,Helvetica,Arial" font-weight="700" font-size="18">Dentist</text>
    <text x="66" y="16" font-family="Segoe UI,Roboto,Helvetica,Arial" font-weight="700" font-size="18" fill="#0AA77F">Radar</text>
    <text x="0" y="32" font-family="Segoe UI,Roboto,Helvetica,Arial" font-size="11" fill="#475569">NHS availability alerts</text>
  </g>
</svg>